<svg width="47" height="52" viewBox="0 0 47 52" fill="none" xmlns="http://www.w3.org/2000/svg">
<path d="M24 4.30088C24 2.21404 26.0778 0.764725 28.0362 1.48551L45.0362 7.74234C46.2161 8.17659 47 9.30047 47 10.5577V49C47 50.6569 45.6569 52 44 52H27C25.3431 52 24 50.6569 24 49V4.30088Z" fill="white"/>
<path d="M12 3C12 1.34314 13.3431 0 15 0C16.6569 0 18 1.34315 18 3V49C18 50.6569 16.6569 52 15 52C13.3431 52 12 50.6569 12 49V3Z" fill="white"/>
<path d="M0 3C0 1.34314 1.34315 0 3 0C4.65685 0 6 1.34315 6 3V49C6 50.6569 4.65685 52 3 52C1.34315 52 0 50.6569 0 49V3Z" fill="white"/>
</svg>
